<svg width="26" height="26" viewBox="0 0 26 26" fill="none" xmlns="http://www.w3.org/2000/svg">
<path fill-rule="evenodd" clip-rule="evenodd" d="M17.0535 3.92195C17.0535 6.69819 19.3074 8.94878 22.0877 8.94878C22.3938 8.94727 22.6992 8.91788 23 8.86098V18.8268C23 23.0195 20.5269 25.5 16.328 25.5H7.18295C2.97313 25.5 0.5 23.0195 0.5 18.8268V9.69512C0.5 5.50244 2.97313 3 7.18295 3H17.1414C17.0823 3.30376 17.0529 3.61252 17.0535 3.92195ZM14.4375 16.6207L18.0098 12.011V11.989C18.3156 11.5781 18.2376 10.9986 17.8339 10.6829C17.6385 10.5321 17.3903 10.4668 17.1458 10.502C16.9014 10.5371 16.6817 10.6698 16.5369 10.8695L13.5252 14.7439L10.0957 12.0439C9.89995 11.8914 9.65088 11.824 9.40476 11.8571C9.15864 11.8901 8.93622 12.0208 8.78773 12.2195L5.09452 16.9829C4.96471 17.1447 4.89482 17.3463 4.89667 17.5537C4.87524 17.9727 5.13984 18.3533 5.54047 18.4798C5.9411 18.6062 6.37672 18.4466 6.60039 18.0915L9.68905 14.0963L13.1185 16.7854C13.3135 16.9426 13.5642 17.0139 13.813 16.9829C14.0618 16.9518 14.2872 16.8211 14.4375 16.6207Z" fill="#00ADEE"/>
<circle opacity="0.4" cx="22.375" cy="3.625" r="3.125" fill="#00ADEE"/>
</svg>
