<svg width="20" height="21" viewBox="0 0 20 21" fill="none" xmlns="http://www.w3.org/2000/svg">
<path fill-rule="evenodd" clip-rule="evenodd" d="M13.2428 3.48756C13.2428 5.70855 15.0459 7.50902 17.2702 7.50902C17.5151 7.50782 17.7594 7.48431 18 7.43878V15.4115C18 18.7656 16.0215 20.75 12.6624 20.75H5.34636C1.97851 20.75 0 18.7656 0 15.4115V8.1061C0 4.75195 1.97851 2.75 5.34636 2.75H13.3131C13.2659 2.993 13.2423 3.24001 13.2428 3.48756ZM11.15 13.6466L14.0078 9.95878V9.94122C14.2525 9.61247 14.1901 9.14889 13.8671 8.89634C13.7108 8.77568 13.5122 8.72345 13.3167 8.75159C13.1211 8.77972 12.9453 8.8858 12.8295 9.04561L10.4201 12.1451L7.6766 9.98512C7.51997 9.86309 7.32071 9.80922 7.12381 9.83565C6.92691 9.86208 6.74898 9.9666 6.63019 10.1256L3.67562 13.9363C3.57177 14.0658 3.51586 14.2271 3.51734 14.3929C3.5002 14.7281 3.71187 15.0326 4.03238 15.1338C4.35288 15.235 4.70138 15.1073 4.88031 14.8232L7.35125 11.6271L10.0948 13.7783C10.2508 13.9041 10.4514 13.9611 10.6504 13.9363C10.8494 13.9115 11.0297 13.8069 11.15 13.6466Z" fill="#00C566"/>
<circle opacity="0.4" cx="17.5" cy="3.25" r="2.5" fill="#00C566"/>
</svg>
