<svg width="17" height="19" viewBox="0 0 17 19" fill="none" xmlns="http://www.w3.org/2000/svg">
<path d="M1.74608 5.66309C1.08497 5.66309 0.540527 6.20753 0.540527 6.8816V16.902C0.540527 17.5631 1.08497 18.1075 1.74608 18.1075C2.42016 18.1075 2.9646 17.5631 2.9646 16.902V6.8816C2.9646 6.20753 2.42016 5.66309 1.74608 5.66309Z" fill="#FFB636"/>
<path d="M8.55175 0.879761C7.89064 0.879761 7.34619 1.42421 7.34619 2.09828V16.902C7.34619 17.5631 7.89064 18.1075 8.55175 18.1075C9.22582 18.1075 9.77026 17.5631 9.77026 16.902V2.09828C9.77026 1.42421 9.22582 0.879761 8.55175 0.879761Z" fill="#FFB636"/>
<path d="M15.2666 10.952C14.5925 10.952 14.0481 11.4964 14.0481 12.1705V16.902C14.0481 17.5631 14.5925 18.1076 15.2537 18.1076C15.9277 18.1076 16.4722 17.5631 16.4722 16.902V12.1705C16.4722 11.4964 15.9277 10.952 15.2666 10.952Z" fill="#FFB636"/>
</svg>
