<svg width="100" height="100" viewBox="0 0 100 100" fill="none" xmlns="http://www.w3.org/2000/svg">
<path d="M49.9998 90.3889C54.6022 90.3889 58.3332 86.6579 58.3332 82.0556C58.3332 77.4532 54.6022 73.7222 49.9998 73.7222C45.3975 73.7222 41.6665 77.4532 41.6665 82.0556C41.6665 86.6579 45.3975 90.3889 49.9998 90.3889Z" fill="#03426D"/>
<path d="M81.0554 49.1944L81.361 48.7222C81.6625 48.2548 81.8681 47.732 81.9657 47.1843C82.0634 46.6367 82.0511 46.0751 81.9296 45.5322C81.8081 44.9893 81.5798 44.4761 81.258 44.0223C80.9363 43.5685 80.5275 43.1832 80.0554 42.8889C71.0236 37.3094 60.616 34.3564 49.9998 34.3611C48.4443 34.3611 46.9165 34.3611 45.4165 34.5556L54.3332 43.4722C61.8185 44.1337 69.0467 46.5304 75.4443 50.4722C76.3626 51.0287 77.4613 51.2065 78.5082 50.9681C79.5552 50.7297 80.4686 50.0937 81.0554 49.1944Z" fill="#03426D"/>
<path d="M91 26.0556C81.7424 20.2816 71.37 16.5275 60.5614 15.0388C49.7528 13.5501 38.7517 14.3604 28.2778 17.4167L35.5834 24.7222C53.0372 20.9753 71.2642 24.1842 86.3889 33.6667C87.3023 34.2062 88.3879 34.3745 89.4218 34.1367C90.4556 33.8989 91.3586 33.2733 91.9445 32.3889L92.25 31.9167C92.5585 31.4515 92.7711 30.9295 92.8753 30.3812C92.9795 29.8329 92.9731 29.2693 92.8567 28.7234C92.7403 28.1776 92.5161 27.6605 92.1973 27.2023C91.8785 26.7442 91.4715 26.3544 91 26.0556Z" fill="#03426D"/>
<path d="M8.33332 13.1944L16.9444 21.8055C14.1548 23.0935 11.4461 24.5499 8.83332 26.1667C8.35516 26.4587 7.94036 26.8436 7.61341 27.2986C7.28646 27.7536 7.05397 28.2695 6.92969 28.8158C6.80541 29.3622 6.79184 29.9278 6.88979 30.4795C6.98774 31.0312 7.19522 31.5576 7.49999 32.0278L7.80554 32.5C8.39139 33.3844 9.29445 34.01 10.3283 34.2478C11.3621 34.4856 12.4477 34.3173 13.3611 33.7778C16.6058 31.7367 20.0159 29.9713 23.5555 28.5L32.2778 37.2222C27.8639 38.6412 23.6386 40.5907 19.6944 43.0278C19.2246 43.3243 18.8184 43.7112 18.4993 44.1661C18.1803 44.6209 17.9548 45.1346 17.8359 45.6773C17.717 46.22 17.7071 46.7809 17.8068 47.3275C17.9065 47.874 18.1138 48.3953 18.4167 48.8611L18.7222 49.3333C19.3081 50.2177 20.2111 50.8433 21.2449 51.0811C22.2788 51.3189 23.3644 51.1507 24.2778 50.6111C28.9899 47.6964 34.1667 45.6106 39.5833 44.4444L49.5833 54.4444C42.9299 54.5123 36.4165 56.3636 30.7222 59.8056C30.2533 60.0995 29.8477 60.4838 29.529 60.9362C29.2102 61.3886 28.9848 61.8999 28.8659 62.4404C28.7469 62.9808 28.7368 63.5396 28.8361 64.0839C28.9355 64.6283 29.1423 65.1475 29.4444 65.6111L29.7222 66.0556C30.3334 66.959 31.2706 67.5908 32.3373 67.8186C33.404 68.0464 34.5175 67.8526 35.4444 67.2778C39.1829 65.057 43.3824 63.7265 47.7176 63.3893C52.0529 63.0522 56.4075 63.7173 60.4444 65.3333L80.5555 85.4167L84.4722 81.5L12.25 9.27777L8.33332 13.1944Z" fill="#03426D"/>
</svg>
