<svg width="10" height="8" viewBox="0 0 10 8" fill="none" xmlns="http://www.w3.org/2000/svg">
<path opacity="0.4" fill-rule="evenodd" clip-rule="evenodd" d="M7.39016 1.51927C8.10155 2.06836 8.70724 2.87281 9.1422 3.87887C9.17472 3.95523 9.17472 4.04453 9.1422 4.11725C8.27228 6.12937 6.7235 7.33341 4.99992 7.33341H4.99585C3.27634 7.33341 1.72756 6.12937 0.857642 4.11725C0.825122 4.04453 0.825122 3.95523 0.857642 3.87887C1.72756 1.86634 3.27634 0.666748 4.99585 0.666748H4.99992C5.86171 0.666748 6.67878 0.965738 7.39016 1.51927ZM3.3739 4.00008C3.3739 4.88897 4.10154 5.6122 4.99992 5.6122C5.89423 5.6122 6.62187 4.88897 6.62187 4.00008C6.62187 3.10715 5.89423 2.38392 4.99992 2.38392C4.10154 2.38392 3.3739 3.10715 3.3739 4.00008Z" fill="white"/>
<path d="M6.01283 3.99887C6.01283 4.55241 5.55754 5.00493 5.00063 5.00493C4.43966 5.00493 3.98438 4.55241 3.98438 3.99887C3.98438 3.93018 3.99251 3.86594 4.0047 3.80129H4.02503C4.47624 3.80129 4.8421 3.44574 4.85836 3.00089C4.90307 2.99321 4.95185 2.98877 5.00063 2.98877C5.55754 2.98877 6.01283 3.44129 6.01283 3.99887Z" fill="white"/>
</svg>
