<svg width="22" height="22" viewBox="0 0 22 22" fill="none" xmlns="http://www.w3.org/2000/svg">
<path d="M11 20.75C16.3848 20.75 20.75 16.3848 20.75 11C20.75 5.61522 16.3848 1.25 11 1.25C5.61522 1.25 1.25 5.61522 1.25 11C1.25 16.3848 5.61522 20.75 11 20.75Z" fill="#93AEC0" fill-opacity="0.4"/>
<path d="M11 1.25C12.2804 1.25 13.5482 1.50219 14.7312 1.99217C15.9141 2.48216 16.9889 3.20034 17.8943 4.10571C18.7997 5.01108 19.5178 6.08591 20.0078 7.26884C20.4978 8.45176 20.75 9.71961 20.75 11C20.75 12.2804 20.4978 13.5482 20.0078 14.7312C19.5178 15.9141 18.7997 16.9889 17.8943 17.8943C16.9889 18.7997 15.9141 19.5178 14.7312 20.0078C13.5482 20.4978 12.2804 20.75 11 20.75C8.41414 20.75 5.93419 19.7228 4.10571 17.8943C2.27723 16.0658 1.25 13.5859 1.25 11C1.25 8.41414 2.27723 5.93419 4.10571 4.10571C5.93419 2.27723 8.41414 1.25 11 1.25V1.25Z" stroke="#03426D" stroke-width="2" stroke-linecap="round"/>
<path d="M11.0003 17.5002C11.5986 17.5002 12.0837 17.0151 12.0837 16.4168C12.0837 15.8185 11.5986 15.3335 11.0003 15.3335C10.402 15.3335 9.91699 15.8185 9.91699 16.4168C9.91699 17.0151 10.402 17.5002 11.0003 17.5002Z" fill="#03426D"/>
<path d="M7.75 8.8335C7.75 8.27951 7.89161 7.73472 8.16138 7.25086C8.43115 6.767 8.82013 6.36013 9.29137 6.06888C9.76262 5.77763 10.3005 5.61168 10.8539 5.58678C11.4073 5.56188 11.9579 5.67886 12.4534 5.92661C12.9489 6.17436 13.3729 6.54465 13.685 7.00233C13.9972 7.46001 14.1871 7.98988 14.2369 8.54163C14.2866 9.09337 14.1945 9.64868 13.9693 10.1548C13.7441 10.6609 13.3932 11.1011 12.95 11.4335C12.1613 12.0261 11.5417 12.0835 11 13.1668" stroke="#03426D" stroke-width="2" stroke-linecap="round"/>
</svg>
