<svg width="24" height="18" viewBox="0 0 24 18" fill="none" xmlns="http://www.w3.org/2000/svg">
<path d="M2 0H22C23.05 0 24 0.95 24 2V16C24 17.05 23.05 18 22 18H2C0.95 18 0 17.05 0 16V2C0 0.95 0.95 0 2 0ZM14 3V4H22V3H14ZM14 5V6H22V5H14ZM14 7V8H21V7H14ZM8 10.91C6 10.91 2 12 2 14V15H14V14C14 12 10 10.91 8 10.91ZM8 3C7.20435 3 6.44129 3.31607 5.87868 3.87868C5.31607 4.44129 5 5.20435 5 6C5 6.79565 5.31607 7.55871 5.87868 8.12132C6.44129 8.68393 7.20435 9 8 9C8.79565 9 9.55871 8.68393 10.1213 8.12132C10.6839 7.55871 11 6.79565 11 6C11 5.20435 10.6839 4.44129 10.1213 3.87868C9.55871 3.31607 8.79565 3 8 3Z" fill="#03426D"/>
</svg>
