<svg width="20" height="16" viewBox="0 0 20 16" fill="none" xmlns="http://www.w3.org/2000/svg">
<path d="M2 0C1.46957 0 0.960859 0.210714 0.585786 0.585786C0.210714 0.960859 0 1.46957 0 2V7H6.13C6.59 5.24 8.18 4 10 4C10.8858 4.00237 11.746 4.29799 12.4461 4.84072C13.1462 5.38344 13.6469 6.14272 13.87 7H20V2C20 1.46957 19.7893 0.960859 19.4142 0.585786C19.0391 0.210714 18.5304 0 18 0H2ZM10 6C9.46957 6 8.96086 6.21071 8.58579 6.58579C8.21071 6.96086 8 7.46957 8 8C8 8.53043 8.21071 9.03914 8.58579 9.41421C8.96086 9.78929 9.46957 10 10 10C10.5304 10 11.0391 9.78929 11.4142 9.41421C11.7893 9.03914 12 8.53043 12 8C12 7.46957 11.7893 6.96086 11.4142 6.58579C11.0391 6.21071 10.5304 6 10 6ZM0 9V14C0 14.5304 0.210714 15.0391 0.585786 15.4142C0.960859 15.7893 1.46957 16 2 16H18C18.5304 16 19.0391 15.7893 19.4142 15.4142C19.7893 15.0391 20 14.5304 20 14V9H13.87C13.6469 9.85728 13.1462 10.6166 12.4461 11.1593C11.746 11.702 10.8858 11.9976 10 12C9.11416 11.9976 8.25404 11.702 7.55393 11.1593C6.85381 10.6166 6.35311 9.85728 6.13 9H0Z" fill="#03426D"/>
</svg>
