<svg width="19" height="17" viewBox="0 0 19 17" fill="none" xmlns="http://www.w3.org/2000/svg">
<path d="M5.08029 15.9998C6.55898 16.0493 8.03259 15.8018 9.41403 15.2721C10.7955 14.7424 12.0567 13.9411 13.1232 12.9156C14.1897 11.8901 15.0398 10.6613 15.6233 9.30168C16.2067 7.94207 16.5118 6.4793 16.5203 4.9998C17.1979 4.16121 17.7011 3.19563 18.0003 2.1598C18.0226 2.07796 18.0208 1.99141 17.9951 1.91057C17.9694 1.82974 17.9208 1.75806 17.8553 1.70417C17.7898 1.65027 17.7101 1.61647 17.6258 1.60683C17.5416 1.59718 17.4563 1.6121 17.3803 1.6498C17.0258 1.82045 16.6266 1.87558 16.2391 1.80741C15.8516 1.73923 15.4953 1.5512 15.2203 1.2698C14.8692 0.885378 14.4446 0.57533 13.9715 0.358027C13.4985 0.140724 12.9866 0.0205868 12.4662 0.00473384C11.9459 -0.0111191 11.4276 0.077635 10.9422 0.265737C10.4568 0.453839 10.0141 0.737461 9.64029 1.0998C9.12848 1.59546 8.75361 2.21509 8.5521 2.89847C8.35059 3.58186 8.32929 4.30575 8.49028 4.9998C5.14029 5.1998 2.84029 3.6098 1.00029 1.4298C0.945009 1.3672 0.872699 1.32205 0.792188 1.29987C0.711677 1.27769 0.626449 1.27943 0.546911 1.30488C0.467372 1.33033 0.396967 1.37839 0.344292 1.4432C0.291616 1.508 0.258951 1.58674 0.250285 1.6698C-0.100245 3.61422 0.152615 5.61935 0.974904 7.41587C1.79719 9.21239 3.14953 10.7143 4.85029 11.7198C3.70992 13.0276 2.10849 13.8445 0.380286 13.9998C0.287698 14.0152 0.202227 14.0591 0.135837 14.1254C0.0694465 14.1917 0.0254586 14.2772 0.0100294 14.3698C-0.00539983 14.4623 0.00850193 14.5574 0.049789 14.6417C0.0910762 14.726 0.157682 14.7952 0.240285 14.8398C1.74381 15.5912 3.39952 15.988 5.08029 15.9998Z" fill="#03426D"/>
</svg>
