<svg width="20" height="18" viewBox="0 0 20 18" fill="none" xmlns="http://www.w3.org/2000/svg">
<path d="M7.34933 11.8579C3.38553 11.8579 0 12.4702 0 14.9175C0 17.3668 3.364 18.0002 7.34933 18.0002C11.3131 18.0002 14.6987 17.3879 14.6987 14.9405C14.6987 12.4913 11.3347 11.8579 7.34933 11.8579Z" fill="#03426D"/>
<path opacity="0.4" d="M7.34935 9.52482C10.049 9.52482 12.2124 7.40617 12.2124 4.76241C12.2124 2.11865 10.049 0 7.34935 0C4.65072 0 2.48633 2.11865 2.48633 4.76241C2.48633 7.40617 4.65072 9.52482 7.34935 9.52482Z" fill="#03426D"/>
<path opacity="0.4" d="M14.1738 4.84873C14.1738 6.19505 13.7609 7.45129 13.0368 8.4948C12.9614 8.60212 13.028 8.74682 13.1591 8.76981C13.3411 8.79952 13.528 8.81773 13.7188 8.82156C15.617 8.87043 17.3205 7.6736 17.7912 5.87116C18.4888 3.19674 16.4419 0.79541 13.8342 0.79541C13.5515 0.79541 13.2804 0.824157 13.0162 0.87686C12.98 0.884526 12.9409 0.901774 12.9213 0.932437C12.8959 0.971725 12.9145 1.02251 12.9399 1.05605C13.7237 2.13214 14.1738 3.44205 14.1738 4.84873Z" fill="#03426D"/>
<path d="M19.7794 12.1693C19.4321 11.4439 18.5935 10.9465 17.3176 10.7022C16.7158 10.5585 15.0857 10.3544 13.57 10.3831C13.5475 10.386 13.5348 10.4013 13.5328 10.4109C13.5299 10.4262 13.5368 10.4492 13.5661 10.4655C14.2667 10.8047 16.9741 12.2804 16.6336 15.3927C16.619 15.5288 16.7295 15.6438 16.8675 15.6246C17.5338 15.5317 19.2481 15.1704 19.7794 14.0474C20.074 13.4533 20.074 12.7634 19.7794 12.1693Z" fill="#03426D"/>
</svg>
