<svg width="118" height="118" viewBox="0 0 118 118" fill="none" xmlns="http://www.w3.org/2000/svg">
<path d="M115.624 10.6242C116.687 9.52398 117.275 8.05047 117.262 6.52099C117.248 4.99151 116.635 3.52843 115.553 2.44689C114.472 1.36534 113.009 0.751854 111.479 0.738563C109.95 0.725272 108.476 1.31324 107.376 2.37583L96.8937 12.8583C92.1395 9.9029 86.5255 8.64256 80.9643 9.28224C75.403 9.92192 70.2218 12.424 66.2628 16.3817L60.0328 22.6175C58.1199 24.5317 57.0454 27.1272 57.0454 29.8333C57.0454 32.5395 58.1199 35.1349 60.0328 37.0492L80.9453 57.9675C81.8933 58.9155 83.0187 59.6676 84.2573 60.1807C85.4959 60.6937 86.8234 60.9578 88.1641 60.9578C89.5047 60.9578 90.8323 60.6937 92.0709 60.1807C93.3095 59.6676 94.4349 58.9155 95.3828 57.9675L101.613 51.7375C105.57 47.7797 108.072 42.5998 108.713 37.0399C109.354 31.4799 108.095 25.8667 105.142 21.1125L115.624 10.6242Z" fill="#03426D"/>
<path d="M51.4577 57.2908C52.5203 56.1907 53.1083 54.7171 53.095 53.1877C53.0817 51.6582 52.4682 50.1951 51.3867 49.1136C50.3051 48.032 48.842 47.4185 47.3126 47.4052C45.7831 47.3919 44.3096 47.9799 43.2094 49.0425L34.6344 57.6175L32.9252 55.9083C32.1049 55.089 30.9929 54.6288 29.8336 54.6288C28.6742 54.6288 27.5622 55.089 26.7419 55.9083L16.3877 66.2625C12.4306 70.2203 9.92826 75.4002 9.28754 80.9601C8.64682 86.5201 9.90535 92.1333 12.8586 96.8875L2.37606 107.376C1.81892 107.914 1.37452 108.558 1.0688 109.269C0.763086 109.981 0.602166 110.746 0.595435 111.521C0.588704 112.296 0.736298 113.064 1.0296 113.781C1.32291 114.497 1.75605 115.149 2.30376 115.696C2.85147 116.244 3.50277 116.677 4.21966 116.971C4.93656 117.264 5.70469 117.412 6.47924 117.405C7.25378 117.398 8.01923 117.237 8.73092 116.931C9.44261 116.626 10.0863 116.181 10.6244 115.624L21.1127 105.142C25.8669 108.095 31.4801 109.353 37.0401 108.713C42.6001 108.072 47.7799 105.57 51.7377 101.613L62.0919 91.2583C62.9112 90.438 63.3714 89.326 63.3714 88.1667C63.3714 87.0073 62.9112 85.8953 62.0919 85.075L60.3827 83.3658L68.9577 74.7908C70.0203 73.6907 70.6083 72.2171 70.595 70.6877C70.5817 69.1582 69.9682 67.6951 68.8867 66.6136C67.8051 65.532 66.342 64.9185 64.8126 64.9052C63.2831 64.8919 61.8096 65.4799 60.7094 66.5425L52.1344 75.1175L42.8827 65.8658L51.4577 57.2908Z" fill="#03426D"/>
</svg>
